<?xml version="1.0" encoding="UTF-8"?><svg xmlns="http://www.w3.org/2000/svg" viewBox="0 0 664.62 480"><defs><style>.cls-1{fill:#f8f4f5;font-size:36px;}.cls-1,.cls-2{font-family:Silom, Silom;}.cls-3,.cls-4,.cls-5,.cls-6,.cls-7{letter-spacing:2.32em;}.cls-3,.cls-8,.cls-9,.cls-7{fill:#414042;}.cls-4{fill:#f26522;}.cls-8{letter-spacing:2.29em;}.cls-10{fill:#f7f7f9;}.cls-11{fill:#f9f9fa;}.cls-12{fill:#f8f4f4;}.cls-13{fill:#f8f7f7;}.cls-14{fill:#694985;}.cls-15{fill:#eae2d8;}.cls-16{fill:#fafafd;}.cls-17{fill:#ef4137;}.cls-18{fill:#ef4136;}.cls-19{fill:#fcf7f7;}.cls-20{fill:#662d91;}.cls-21{fill:#231f20;}.cls-22{fill:#211d17;}.cls-23{fill:#362838;}.cls-6,.cls-7,.cls-24,.cls-25{font-size:14px;}.cls-6,.cls-24{fill:#a96dae;}.cls-26{font-size:21px;}</style></defs><g id="Background"><rect class="cls-22" width="640" height="480"/></g><g id="Layer_1"><path class="cls-15" d="m22.9,95.26c20.1-1.78,40.25-3.03,60.42-3.75,20.08-.71,40.19-.9,60.28-.55,11.33.2,22.66.56,33.97,1.09,2.75.1,5.32-.47,7.71-1.72,2.48-.81,4.63-2.19,6.44-4.14,1.95-1.81,3.33-3.96,4.14-6.44,1.25-2.38,1.83-4.95,1.72-7.71-.23-5.17-1.93-10.54-5.86-14.14l-4.05-3.13c-3.12-1.81-6.48-2.72-10.09-2.73-20.16-.94-40.34-1.36-60.52-1.24-20.1.12-40.19.77-60.25,1.95-11.31.67-22.61,1.5-33.9,2.5-2.75-.1-5.32.47-7.71,1.72-2.48.81-4.63,2.19-6.44,4.14-1.95,1.81-3.33,3.96-4.14,6.44-1.25,2.38-1.83,4.95-1.72,7.71.23,5.17,1.93,10.54,5.86,14.14,3.71,3.41,8.92,6.32,14.14,5.86h0Z"/><path class="cls-23" d="m22.41,320.6c26.93-2.14,53.9-3.76,80.89-4.86,26.99-1.09,54-1.67,81.02-1.71,15.25-.03,30.49.12,45.74.42,2.75.1,5.32-.47,7.71-1.72,2.48-.81,4.63-2.19,6.44-4.14,1.95-1.81,3.33-3.96,4.14-6.44,1.25-2.38,1.83-4.95,1.72-7.71-.23-5.17-1.93-10.54-5.86-14.14s-8.69-5.75-14.14-5.86c-27.01-.54-54.03-.57-81.04-.06s-54.01,1.53-80.98,3.08c-15.22.88-30.43,1.92-45.63,3.13-2.75-.1-5.32.47-7.71,1.72-2.48.81-4.63,2.19-6.44,4.14-1.95,1.81-3.33,3.96-4.14,6.44-1.25,2.38-1.83,4.95-1.72,7.71.23,5.17,1.93,10.54,5.86,14.14s8.9,6.27,14.14,5.86h0Z"/><text class="cls-2"><tspan class="cls-26"><tspan x="10.17" y="80.49">Contributers</tspan></tspan><tspan class="cls-25"><tspan class="cls-4" x="10.17" y="114.09">	</tspan><tspan class="cls-11" x="46.17" y="114.09">Andrew</tspan><tspan class="cls-21" x="104.52" y="114.09"> </tspan><tspan class="cls-17" x="108.02" y="114.09">- Programmer</tspan><tspan class="cls-9" x="215.37" y="114.09" xml:space="preserve">                                    </tspan><tspan class="cls-11" x="341.37" y="114.09">Gloria </tspan><tspan class="cls-17" x="389.21" y="114.09">- Artist</tspan></tspan><tspan class="cls-25"><tspan class="cls-4" x="10.17" y="147.69">	</tspan><tspan class="cls-13" x="46.17" y="147.69">Ashley </tspan><tspan class="cls-17" x="99.84" y="147.69">- Artist</tspan><tspan class="cls-8" x="154.67" y="147.69">	</tspan><tspan class="cls-3" x="190.17" y="147.69" xml:space="preserve">			</tspan><tspan class="cls-9" x="298.17" y="147.69" xml:space="preserve">            </tspan><tspan class="cls-10" x="340.17" y="147.69">Tiana</tspan><tspan class="cls-9" x="379.84" y="147.69"> </tspan><tspan class="cls-17" x="383.34" y="147.69">- Artist</tspan></tspan><tspan class="cls-25"><tspan class="cls-4" x="10.17" y="181.29">	</tspan><tspan class="cls-11" x="46.17" y="181.29">Chris</tspan><tspan class="cls-18" x="84.67" y="181.29"> </tspan><tspan class="cls-17" x="88.17" y="181.29">- Designer/Writer</tspan><tspan class="cls-9" x="223.5" y="181.29" xml:space="preserve">                                 </tspan><tspan class="cls-16" x="339" y="181.29">Reini</tspan><tspan class="cls-9" x="376.34" y="181.29"> </tspan><tspan class="cls-17" x="379.84" y="181.29">- Prototyping/Ideation</tspan></tspan><tspan class="cls-7"><tspan x="10.17" y="198.09">	</tspan></tspan><tspan class="cls-25"><tspan class="cls-3" x="10.17" y="214.89">	</tspan><tspan class="cls-19" x="46.17" y="214.89">Derek</tspan><tspan class="cls-18" x="90.52" y="214.89" xml:space="preserve"> - Producer/Writer                               </tspan><tspan class="cls-12" x="340.19" y="214.89">Sean</tspan><tspan class="cls-18" x="376.37" y="214.89" xml:space="preserve"> - Designer</tspan></tspan><tspan class="cls-26"><tspan class="cls-14" x="10.17" y="307.29">External Assets</tspan><tspan class="cls-20" x="186.92" y="307.29" xml:space="preserve">  </tspan></tspan><tspan class="cls-24"><tspan class="cls-5" x="10.17" y="352.89">	</tspan><tspan x="46.17" y="352.89" xml:space="preserve">Adwitr, AntumDeluge,  Datagoblin</tspan></tspan><tspan class="cls-24"><tspan class="cls-5" x="10.17" y="386.49">	</tspan><tspan x="46.17" y="386.49">Emily Huo, Statoasty, gx310</tspan></tspan><tspan class="cls-6"><tspan x="10.17" y="420.09">	</tspan></tspan></text><text class="cls-1" transform="translate(253.7 40.35)"><tspan x="0" y="0">CREDITS</tspan></text></g></svg>